<svg width="32" height="32" viewBox="0 0 32 32" fill="none" xmlns="http://www.w3.org/2000/svg">
<path fill-rule="evenodd" clip-rule="evenodd" d="M6.46113 12.6308C6.46113 12.6308 6.46113 12.6308 6.46113 12.6308L4.33096 26.477C4.15175 27.6419 5.05304 28.6924 6.23167 28.6924H26.751C27.9296 28.6924 28.8309 27.6419 28.6517 26.477L26.5215 12.6308C26.3772 11.6926 25.57 11.0001 24.6209 11.0001H8.36186C7.41269 11.0001 6.60547 11.6927 6.46113 12.6308ZM4.18028 12.2799C4.49782 10.216 6.27367 8.69244 8.36186 8.69244H24.6209C26.709 8.69244 28.4849 10.216 28.8024 12.2799L30.9325 26.1261C31.3268 28.6889 29.3439 31.0001 26.751 31.0001H6.23167C3.6387 31.0001 1.65582 28.6889 2.05011 26.1261L4.18028 12.2799Z" fill="#F4F5F9"/>
<path fill-rule="evenodd" clip-rule="evenodd" d="M12.2617 5.23077C12.2617 2.89419 14.1558 1 16.4924 1C18.8291 1 20.7232 2.89419 20.7232 5.23077C20.7232 5.86802 20.2066 6.38462 19.5694 6.38462C18.9321 6.38462 18.4155 5.86802 18.4155 5.23077C18.4155 4.16867 17.5545 3.30769 16.4924 3.30769C15.4303 3.30769 14.5694 4.16867 14.5694 5.23077C14.5694 5.86802 14.0528 6.38462 13.4155 6.38462C12.7783 6.38462 12.2617 5.86802 12.2617 5.23077Z" fill="#F4F5F9"/>
</svg>
