<svg width="32" height="32" viewBox="0 0 32 32" fill="none" xmlns="http://www.w3.org/2000/svg">
<path fill-rule="evenodd" clip-rule="evenodd" d="M1 5.15385C1 4.51659 1.51659 4 2.15385 4H14.4615C15.0988 4 15.6154 4.51659 15.6154 5.15385C15.6154 5.7911 15.0988 6.30769 14.4615 6.30769H2.15385C1.51659 6.30769 1 5.7911 1 5.15385Z" fill="#F4F5F9"/>
<path fill-rule="evenodd" clip-rule="evenodd" d="M1 15.923C1 15.2858 1.51659 14.7692 2.15385 14.7692H22.1538C22.7911 14.7692 23.3077 15.2858 23.3077 15.923C23.3077 16.5603 22.7911 17.0769 22.1538 17.0769H2.15385C1.51659 17.0769 1 16.5603 1 15.923Z" fill="#F4F5F9"/>
<path fill-rule="evenodd" clip-rule="evenodd" d="M1 26.6922C1 26.0549 1.51659 25.5383 2.15385 25.5383H29.8462C30.4834 25.5383 31 26.0549 31 26.6922C31 27.3294 30.4834 27.846 29.8462 27.846H2.15385C1.51659 27.846 1 27.3294 1 26.6922Z" fill="#F4F5F9"/>
</svg>
