<svg width="32" height="32" viewBox="0 0 32 32" fill="none" xmlns="http://www.w3.org/2000/svg">
<path fill-rule="evenodd" clip-rule="evenodd" d="M21.7304 21.7296C22.2973 21.1627 23.2164 21.1627 23.7833 21.7296L30.5575 28.5038C31.1244 29.0707 31.1244 29.9898 30.5575 30.5567C29.9906 31.1236 29.0715 31.1236 28.5046 30.5567L21.7304 23.7825C21.1635 23.2156 21.1635 22.2965 21.7304 21.7296Z" fill="#2EB3CF"/>
<path fill-rule="evenodd" clip-rule="evenodd" d="M0.982422 14.0464C0.982422 6.83111 6.8316 0.981934 14.0469 0.981934C21.2623 0.981934 27.1115 6.83111 27.1115 14.0464C27.1115 17.6474 25.6528 20.9106 23.2972 23.2722L22.2695 22.2471L23.2972 23.2722C20.9337 25.6421 17.6604 27.111 14.0469 27.111C6.8316 27.111 0.982422 21.2618 0.982422 14.0464ZM14.0469 3.88516C8.43501 3.88516 3.88565 8.43452 3.88565 14.0464C3.88565 19.6584 8.43501 24.2077 14.0469 24.2077C16.8581 24.2077 19.4005 23.068 21.2416 21.222L21.2417 21.222C23.0765 19.3824 24.2082 16.848 24.2082 14.0464C24.2082 8.43452 19.6588 3.88516 14.0469 3.88516Z" fill="#2EB3CF"/>
</svg>
