<svg version="1.2" xmlns="http://www.w3.org/2000/svg" viewBox="0 0 360 120" width="360" height="120">
	<title>Yvn Logo-03-ai-svg</title>
	<style>
		.s0 { fill: #ffffff } 
		.s1 { fill: #2fb3cf } 
	</style>
	<g id="Layer 1">
		<g id="&lt;Group&gt;">
			<g id="&lt;Group&gt;">
				<path id="&lt;Compound Path&gt;" fill-rule="evenodd" class="s0" d="m216.2 12.9h1.6q-3.2 6.7-8.9 18.5-8.3 17.4-16.9 35.1-8.6 17.7-12 23.8-3.2 5.6-6.9 11-1.8 2.5-3.9 4.9-2.1 2.3-5.1 3.8-2.7 1.4-5.8 1.4-3 0-5.6-1.7-2-1.5-3.1-3.6-1.2-2-1.5-4.4-0.6-5.8 2.6-10.8 3.1-4.9 8.3-8.1 6-3.4 12.9-4.9 6.8-1.4 13.7-2 0.1-0.1 0.1-0.2 0.6-1.2 1.1-2.4-0.5-0.9-3-5.8-2.5-5-6.2-12.3-6.6-13-13-25.7-6.5-12.8-8.5-16.6 3.3 0 6.5 0 3.3 0 6.5 0 4.9 9.7 8.4 16.7 3.6 7 7.2 14 3.5 7 8.4 16.7 11.5-23.7 23.1-47.4zm-41.1 82.7q5.6-8.8 9.9-18.2-5.9 0.5-11.4 1.8-5.6 1.4-10 5.2-3.1 2.7-5 6.5-1.9 3.9-1.8 7.9 0.2 4 3.2 7.3 1.1 1 2.5 1.1 1.4 0 2.8-0.6 3-1.4 5.1-4.1 2.1-2.6 3.7-5.4 0.5-0.8 1-1.5z"/>
				<path id="&lt;Compound Path&gt;" class="s0" d="m287.5 12.9h1.6q-0.4 1-4.8 10.1-4.4 9.1-10.2 20.9-5.7 11.8-10.1 20.7-4.4 9-4.7 9.7h-0.7l-31.1-61.4h12.9q4.9 9.7 8.5 16.7 3.5 7 7.1 14 3.5 7 8.4 16.7 0.7-1.3 4.2-8.4 3.4-7.2 7.7-16.1 4.4-8.9 7.7-15.6 3.2-6.7 3.5-7.3z"/>
				<path id="&lt;Compound Path&gt;" class="s0" d="m346.7 14.3q7.5 3.3 8 13.2v47.1h-11.7v-45.9q0-4.8-1-7.5-0.9-2.8-2.4-4.1-1.4-1.3-2.8-1.7-1.4-0.3-2.4-0.2-1.1 0.1-1.2 0.1-4.1 1.2-8.3 3.9-9.7 6.2-14.4 15.5v39.7h-11.7v-61.3h11.7v18.5q4.9-8.1 13.6-13.5 5.4-3.5 10.6-4.6 4.3-0.9 8.3-0.2 2 0.3 3.7 1z"/>
			</g>
		</g>
		<g id="&lt;Group&gt;">
			<g id="&lt;Group&gt;">
				<g id="&lt;Group&gt;">
					<path id="&lt;Compound Path&gt;" fill-rule="evenodd" class="s1" d="m109.8 97.7c1.3 3.1 0.7 5.7-2.2 7.6-2.5 1.6-5.2 1.1-7.8-0.6 0.2 2.9-0.3 5.5-3.4 6.8-3.1 1.2-5.7 0.4-8-2.1-0.2 3.2-1.8 5.4-5 6-3.3 0.7-5.6-0.7-7.3-3.4-1.2 3-3.1 5.1-6.7 4.8-3.1-0.2-4.9-2-5.8-4.9-1.8 2.8-4.2 4.3-7.7 3.5-3-0.8-4.4-2.9-4.7-5.8-2.8 2.6-5.7 3.3-9 1.3-2-1.2-2.7-3.1-2.3-6.2-2.8 1.7-5.6 2.3-8.2 0.4-2.5-1.9-3.2-4.4-1.8-7.4-3.2 1.2-6 1.1-8.2-1.3-2.2-2.3-1.9-4.9-0.1-7.5-3.2 0.4-5.9 0-7.5-2.7-1.6-2.7-0.7-5.1 1.3-7.5-3.3-0.2-5.7-1.4-6.6-4.4-0.9-2.9 0.7-5 3.3-6.7-0.9-0.3-1.6-0.5-2.2-0.8-2.4-1.1-3.6-3.3-3.4-5.7 0.2-2.2 1.9-4.2 4.4-4.8 0.9-0.2 1.2-0.6 1.3-1.5 0.7-3.8 1.4-7.5 2.3-11.3 1.3-5.7 4.5-10.6 8-15.3 4.4-6 10.2-10.9 16.9-14.8 10.7-6 22.3-8.5 34.8-7.8q7.9 0.6 15.4 3.1c6.4 2.1 12.2 5.1 17.4 9.2 2.7 2.2 5.4 4.6 7.6 7.2 4.2 4.7 7.7 9.9 9.8 15.7 1.6 4.6 2.8 9.4 3.1 14.3 0 0.4 0.4 0.9 0.8 1 3.6 1.2 4.8 2.9 4.6 6.7-0.1 2.2-2.1 4-5.1 4.6-0.1 0-0.2 0.1-0.3 0.2 3 1.8 4.4 4.2 3.1 7.4-1 2.5-3.3 3.6-6.4 3.7 2 2.4 3 4.7 1.4 7.5-1.6 2.7-4.3 3.2-7.6 2.7 1.9 2.8 2.1 5.4-0.4 7.8-2 1.9-3.9 2.1-7.8 1zm-91.3-39.3c0.7-15 6.9-27.4 19.7-36.7 12.8-9.2 27.4-12.2 43.2-8.9 27 5.8 40.3 28.4 39.4 46.2q-19.3 0-38.6 0 0 0.2 0 0.3 2 0.1 4 0.3c10.9 0.9 21.9 1.8 32.9 2.7 1.1 0.1 1.5 0 1.6-1.1 0.3-2.6 2.4-4.7 5-5.3 0.6-0.1 1.2-0.2 1.1-1-0.9-4.2-1.4-8.5-2.6-12.6-1.7-5.6-4.8-10.5-8.5-15.1-4.6-5.8-10.4-10.5-17.1-14-7-3.7-14.5-6-22.6-6.8-7.6-0.8-15.2-0.2-22.6 1.9-8.6 2.4-16.4 6.4-22.9 12.2-2.9 2.6-5.6 5.3-7.8 8.4-4 5.6-7.3 11.5-8.6 18.2-0.5 2.6-0.8 5.2-1.2 7.8-0.1 0.5-0.1 0.9 0.6 1.2 1.3 0.5 2.6 1.2 3.9 1.8 0.3 0.1 0.6 0.3 1.1 0.5zm79.6-0.1c7 0 13.9 0 20.8 0 1.1 0 1.4-0.2 1.4-1.2-0.2-4.9-1.3-9.6-3-14.3-2.3-6.3-6.2-11.7-11.1-16.4-4.3-4.1-9.3-7.4-14.9-9.8-5.9-2.5-12-4-18.5-4.3-12.6-0.6-24 2.5-33.9 9.6-2.9 2.1-5.6 4.3-7.9 7-3.5 4.1-6.6 8.4-8.5 13.4-1.8 4.7-2.9 9.5-3.2 14.5 0 1.5 0 1.4 1.6 1.4q20.6 0 41.3 0.1c1 0 1.4-0.2 1.7-1.2 0.7-2.7 3.2-4.4 6.1-4.3 2.7 0.1 5.3 1.9 5.8 4.4 0.2 1 0.6 1.1 1.6 1.1 6.9 0 13.8 0 20.7 0zm21.7 19.3q0.1-0.1 0.1-0.3-21.6-8-43.2-15.9-0.2 0.2-0.2 0.4c12.5 6.7 25 13.3 37.6 20 1.2-2.4 2.9-4 5.7-4.2zm-57.6-16.5q-0.1-0.2-0.2-0.4c-13.8 3.2-27.6 6.4-41.2 9.5 0.1 1.3 0.4 2.4 0.2 3.4-0.2 1.1-0.7 2.1-1.2 3.3 14.2-5.3 28.3-10.5 42.4-15.8zm-24 34.1c2.2 1.4 3.2 3.2 3.5 5.8 0.4-0.6 0.6-0.9 0.8-1.2q3.2-4.8 6.4-9.7 4.4-6.9 8.9-13.7c2.3-3.6 4.8-7.2 7.2-10.8 0.2-0.3 0.3-0.7 0.5-1.1q-0.1-0.1-0.3-0.1c-9 10.2-17.9 20.4-27 30.8zm32.2-29.4q-0.2 0-0.5 0c-0.4 13.2-0.8 26.4-1.2 39.6 2.6-0.3 4.7 0.5 6.3 2.4q0.1-0.1 0.2-0.2-2.4-20.9-4.8-41.8zm26.9 35.5c-7.9-12.2-15.8-24.3-23.7-36.4q-0.2 0.2-0.4 0.2 8.4 18.2 16.9 36.4c2.7-1.1 3-1.1 7.2-0.2zm-64.5-7q15.7-15.3 31.4-30.6-0.2-0.2-0.3-0.3-16.8 12.3-33.4 24.7c1.9 2.7 2.1 3.2 2.3 6.2zm34.2-29q-0.2 0-0.4-0.1c-6.3 11.7-12.7 23.5-19 35.2 1.1 0.8 2.2 1.3 2.9 2.1 0.7 0.8 1.2 1.8 1.9 2.9 4.9-13.5 9.8-26.8 14.6-40.1zm5.1 0.4q-0.2 0.1-0.4 0.1c2.6 12.9 5.2 25.8 7.9 38.8 2.6-0.9 4.8-0.3 7 0.9q-7.3-19.9-14.5-39.8zm-9-3.2q-0.2-0.2-0.3-0.4c-12.8 5.9-25.5 11.8-38.2 17.6 0.3 1.1 0.9 2.1 1 3.1 0 1-0.2 2.1-0.4 3.4 12.7-7.9 25.3-15.8 37.9-23.7zm5.4 3.5q-0.2 0-0.4-0.1c-3.4 12.7-6.8 25.4-10.3 38 1.2 0.4 2.3 0.8 3.3 1.3 1.1 0.5 2.1 1.2 2.8 1.6 1.5-13.1 3-27 4.6-40.8zm37.8 29q0-0.2 0.1-0.3-15.8-15.4-31.5-30.8-0.2 0.2-0.4 0.3c8.4 10.7 16.7 21.4 25.1 32.3q2.9-2.4 6.7-1.5zm-28.5-34.9q0 0.2-0.1 0.4c13.6 3.9 27.2 7.8 40.6 11.6 0.6-1.1 1-2.1 1.7-2.8 0.8-0.8 1.7-1.4 2.8-2.1-15.1-2.4-30-4.7-45-7.1zm35.6 26.8q0-0.1 0-0.3-18.7-11.8-37.3-23.7-0.1 0.2-0.2 0.4c10.6 8.8 21.2 17.6 31.8 26.5 1.4-1.9 3.3-2.7 5.7-2.9zm-56-26.7q-0.1-0.2-0.1-0.4c-0.1 0-0.3 0-0.5 0-2.7 0.2-5.3 0.4-7.9 0.6-9.1 0.7-18.2 1.4-27.3 2-1.6 0.1-3 0.1-3.3 2-0.1 0.4-0.7 0.9-1.1 1.3-0.1 0.2-0.3 0.4-0.5 0.8 13.7-2.1 27.2-4.2 40.7-6.3zm-48.2 12.6c0 2.8 2.5 5.2 5.5 5.2 3.1 0.1 5.7-2.2 5.7-5.1 0.1-2.7-2.4-5-5.5-5.1-3.1-0.1-5.6 2.2-5.7 5zm110 0c0 2.8 2.5 5.2 5.6 5.3 3 0 5.6-2.4 5.6-5.2 0.1-2.7-2.5-5.1-5.5-5.1-3.1-0.1-5.7 2.3-5.7 5zm-56 37.1c0-2.8-2.5-5.1-5.6-5.1-3.1 0-5.6 2.3-5.6 5.1 0 2.9 2.5 5.2 5.6 5.2 3.1 0 5.6-2.3 5.6-5.2zm24.4 0.2c0.1-2.8-2.3-5.2-5.3-5.3-3.1-0.2-5.8 2.1-5.8 5-0.1 2.8 2.3 5.1 5.4 5.3 3 0 5.6-2.2 5.7-5zm-69.3-48.4c0-2.8-2.5-5.1-5.6-5.1-3.1 0-5.6 2.3-5.6 5.1 0 2.9 2.5 5.1 5.6 5.1 3.1 0 5.6-2.2 5.6-5.1zm96.3 25c-0.2-1.5-0.4-2.7-0.6-3.9-0.1-0.3-0.4-0.6-0.7-0.7q-7.6-4.1-15.3-8.2-8-4.3-16.1-8.6c-0.2-0.2-0.5-0.2-0.8-0.3q-0.1 0.2-0.2 0.3c11.2 7.1 22.5 14.2 33.7 21.4zm-15.3 19.6c0-2.9-2.4-5.1-5.6-5.2-2.8 0-5.5 2.4-5.5 5.2 0 2.8 2.5 5.1 5.5 5.1 3.2 0 5.6-2.2 5.6-5.1zm22-44.6c0 2.8 2.6 5.1 5.7 5.2 2.9 0.1 5.5-2.4 5.5-5.1 0-2.9-2.5-5.2-5.6-5.2-3 0-5.6 2.4-5.6 5.1zm-75.3 49.7c2.9 0 5.4-2.3 5.4-5 0.1-2.8-2.4-5.2-5.4-5.2-3.1 0-5.8 2.3-5.8 5 0 2.9 2.6 5.2 5.8 5.2zm15.4-43.6q-0.3-0.2-0.6-0.5c-0.3 0.4-0.5 0.9-0.9 1.2-4 4.1-8.1 8.1-12.2 12.1-4.6 4.5-9.4 9-14 13.6-0.2 0.1-0.4 0.4-0.5 0.6 1.3 0 2.4-0.1 3.5 0.1 0.8 0.1 1.2-0.1 1.6-0.6q1.2-1.5 2.4-2.9 4.1-4.8 8.3-9.6 4.9-5.6 9.9-11.2 1.2-1.4 2.5-2.8zm18.1-0.9q-0.2 0.2-0.4 0.4c9.3 9 18.5 18 27.9 27.1 0.2-1.4 0.4-2.6 0.5-3.8 0-0.2-0.3-0.5-0.5-0.7q-8.7-7.3-17.4-14.5-3.9-3.3-7.8-6.5-1.2-1-2.3-2zm28.2 25.7c0 3 2.3 5.2 5.5 5.2 3.1 0.1 5.5-2.2 5.5-5 0-2.9-2.4-5.2-5.3-5.2-3.3 0-5.7 2.1-5.7 5zm-88.2-14.3c-3.3 0-5.5 2-5.5 5.1-0.1 3 2.2 5.1 5.5 5.1 3 0 5.5-2.3 5.4-5.1 0-2.9-2.4-5.1-5.4-5.1zm0.6-0.9c1.1 0.5 2.2 0.7 2.8 1.3 0.8 0.6 1.4 0.5 2.2 0.1q8.1-3.8 16.3-7.5c5-2.2 9.9-4.5 14.8-6.7 0.5-0.2 1-0.6 1.5-0.9q-0.1-0.1-0.2-0.2c-12.3 4.6-24.8 9.2-37.4 13.9zm11.7 15.4c0-3.2-2.1-5-5.5-5.1-3.2-0.2-5.5 2.7-5.5 5 0 2.4 2.2 5.2 5.6 5.1 2.5 0 5.7-1.7 5.4-5zm45.3-24.2q-0.1 0.1-0.2 0.2c6.9 10.7 13.8 21.3 20.9 32 0.4-1.2 0.7-2.2 1.1-3.1 0.3-0.6 0.3-0.9-0.1-1.4-3-3.9-6-7.8-9.1-11.7-2.2-2.8-4.5-5.6-6.7-8.4-1.7-2.2-3.4-4.5-5.1-6.7-0.2-0.3-0.5-0.6-0.8-0.9zm27.2 26.8c-2.6 0-5.5 1.5-5.4 4.9 0.1 3.2 2.1 5.3 5.4 5.3 3 0 5.5-2.3 5.5-5.1 0-2.8-2.5-5.1-5.5-5.1zm-39.9 15.7c-0.1 2.9 2.1 5 5.2 5.1 3.6 0.2 5.7-2.5 5.7-5.1 0-2.5-1.9-5.1-5.3-5.1-3.4 0-5.6 2-5.6 5.1zm-23.6-10.6c0-3-2.3-5.2-5.5-5.2-3 0.1-5.4 2.3-5.5 5.1 0 2.9 2.4 5.2 5.6 5.2 3.1 0 5.4-2.1 5.4-5.1zm46.4 4.8c0.8-1.1 1.2-2 1.9-2.8 0.4-0.5 0.5-0.9 0.2-1.4-2.5-5.4-4.9-10.7-7.4-16q-3.3-7-6.6-13.9c-0.1-0.3-0.4-0.6-0.6-0.9q-0.1 0.1-0.2 0.1c4.2 11.6 8.4 23.2 12.7 34.9zm-4.1-45.3q0 0.2 0 0.4c13.3 2 26.5 4.1 39.9 6.2-0.8-1.2-1.4-2.2-2.2-3.1-0.2-0.3-0.6-0.5-0.9-0.5q-6-0.5-12-1-9.5-0.8-19.1-1.6-2.8-0.2-5.7-0.4zm-26.5 1.3q-0.1-0.2-0.1-0.4c-13.2 2.1-26.4 4.2-40 6.3 0.9 0.5 1.8 0.7 2.1 1.2 1.4 1.7 2.9 1.2 4.6 0.7 0.4-0.2 0.9-0.2 1.3-0.3q15.6-3.6 31.2-7.2 0.4-0.1 0.9-0.3zm63.6 27.2c3.5 0 5.4-2.2 5.5-5.2 0-2.9-2.4-5-5.5-5-3.2 0-5.5 2.1-5.5 5.1 0 2.9 2.3 5.1 5.5 5.1zm-94.8-1.7c1.3 0.2 2.3 0.1 3 0.5 1.3 0.7 2.2 0.2 3.1-0.7q0.3-0.2 0.6-0.5 8.8-6.5 17.6-13c2.9-2.2 5.9-4.4 8.8-6.5 0.4-0.3 0.6-0.6 0.9-0.9q0-0.1-0.2-0.1c-11.1 7-22.3 14-33.8 21.2zm17.1 14.3c1.5-0.2 2.8-0.4 4.1-0.6 0.2 0 0.5-0.3 0.6-0.6 0.6-1 1.1-2.2 1.7-3.2q4.5-8.5 9.1-16.9c1.7-3.2 3.5-6.4 5.3-9.7 0.1-0.2 0.2-0.4 0.2-0.6q-0.2-0.1-0.3-0.2c-6.9 10.6-13.8 21.1-20.7 31.8zm23.6-30.4q-0.2-0.1-0.3-0.1c-4.3 11.6-8.5 23.1-12.8 35 1.3-0.5 2.1-1 3-1.2 0.8-0.2 1.1-0.6 1.3-1.2 2.6-9.6 5.3-19.1 7.9-28.6 0.4-1.3 0.6-2.6 0.9-3.9zm3.6-17.2c-3.1 0-5.5 2.1-5.3 5.2 0.1 2.8 2 4.9 5.4 5 3.6 0.1 5.5-2.6 5.5-5.2-0.1-2.8-2.1-5.1-5.6-5zm12.9 9q-0.1 0.2-0.1 0.4c12.3 4.5 24.6 9 37.1 13.6-0.4-1.1-0.9-1.9-1-2.8-0.1-0.8-0.5-1.1-1.3-1.3q-15.1-4.3-30.2-8.6-2.2-0.7-4.5-1.3zm-6.8 45.3c0.9-1 1.6-1.8 2.4-2.4 0.7-0.5 0.7-1 0.6-1.7-2.1-10.4-4.2-20.9-6.4-31.3 0-0.4-0.2-0.8-0.3-1.1q-0.2 0-0.4 0.1c1.4 12 2.8 24.1 4.1 36.4zm-11.4 0c1.1-0.7 1.9-1.4 2.7-1.9 0.7-0.3 0.9-0.7 0.9-1.3q0.5-15.9 1-31.8c0-0.3 0-0.6 0-1q-0.3 0-0.5 0c-1.4 12-2.8 23.9-4.1 36zm-8.3-48.5q0-0.1 0-0.3-18.7 0-37.6 0c0.2 1 0.4 1.9 0.7 3q18.5-1.4 36.9-2.7z"/>
				</g>
				<g id="&lt;Group&gt;">
					<path id="&lt;Compound Path&gt;" class="s1" d="m126.8 64.1c-1.3 0-2.4-1.1-2.4-2.3 0-1.3 1.1-2.3 2.4-2.3 1.4 0 2.5 1 2.5 2.3 0 1.2-1.1 2.3-2.5 2.3z"/>
				</g>
				<g id="&lt;Group&gt;">
					<path id="&lt;Compound Path&gt;" class="s1" d="m69.8 60.8c-1.4 0-2.5-1-2.5-2.2 0-1.3 1.1-2.3 2.5-2.3 1.4 0 2.5 1 2.5 2.3 0 1.2-1.1 2.2-2.5 2.2z"/>
				</g>
				<g id="&lt;Group&gt;">
					<path id="&lt;Path&gt;" class="s1" d="m17.3 72.9c0 1.1-1.2 2.2-2.5 2.2-1.3 0.1-2.5-1-2.5-2.2 0-1.2 1.1-2.3 2.4-2.3 1.3 0 2.5 1.1 2.6 2.3z"/>
				</g>
				<g id="&lt;Group&gt;">
					<path id="&lt;Path&gt;" class="s1" d="m124.7 75.1c-1.4 0-2.5-1-2.5-2.2 0-1.3 1.1-2.3 2.5-2.3 1.4 0 2.5 1 2.5 2.3 0 1.2-1.1 2.2-2.5 2.2z"/>
				</g>
				<g id="&lt;Group&gt;">
					<path id="&lt;Path&gt;" class="s1" d="m57.6 112.2c-1.3 0-2.5-1-2.5-2.2 0-1.2 1.1-2.3 2.4-2.4 1.2 0 2.4 1 2.5 2.2 0.1 1.2-1.1 2.3-2.4 2.4z"/>
				</g>
				<g id="&lt;Group&gt;">
					<path id="&lt;Path&gt;" class="s1" d="m82.1 112.1c-1.4 0-2.5-1-2.5-2.3 0-1.2 1.1-2.2 2.5-2.2 1.3 0 2.4 1 2.4 2.2 0 1.3-1.1 2.3-2.4 2.3z"/>
				</g>
				<g id="&lt;Group&gt;">
					<path id="&lt;Path&gt;" class="s1" d="m12.8 59.5c1.3 0 2.4 1 2.4 2.2 0.1 1.3-0.9 2.3-2.3 2.4-1.3 0-2.5-1-2.6-2.2 0-1.3 1.1-2.3 2.5-2.4z"/>
				</g>
				<g id="&lt;Group&gt;">
					<path id="&lt;Path&gt;" class="s1" d="m93.7 108.5c-1.4 0-2.5-1-2.5-2.2 0-1.3 1.1-2.3 2.5-2.3 1.4 0 2.5 1 2.5 2.3 0 1.2-1.1 2.2-2.5 2.2z"/>
				</g>
				<g id="&lt;Group&gt;">
					<path id="&lt;Path&gt;" class="s1" d="m126.8 64.1c-1.3 0-2.4-1.1-2.4-2.3 0-1.3 1.1-2.3 2.4-2.3 1.4 0 2.5 1 2.5 2.3 0 1.2-1.1 2.3-2.5 2.3z"/>
				</g>
				<g id="&lt;Group&gt;">
					<path id="&lt;Path&gt;" class="s1" d="m46 108.6c-1.4 0-2.5-1-2.5-2.3 0-1.2 1.1-2.2 2.5-2.2 1.3 0 2.4 1 2.4 2.2 0 1.3-1.1 2.3-2.4 2.3z"/>
				</g>
				<g id="&lt;Group&gt;">
					<path id="&lt;Path&gt;" class="s1" d="m115.9 92.6c0 1.3-1.2 2.4-2.6 2.3-1.3 0-2.5-1-2.5-2.2 0-1.2 1.3-2.3 2.7-2.3 1.4 0 2.4 1 2.4 2.2z"/>
				</g>
				<g id="&lt;Group&gt;">
					<path id="&lt;Path&gt;" class="s1" d="m19.5 85.6c-1.4 0-2.5-1-2.5-2.2 0-1.3 1.1-2.3 2.5-2.3 1.4 0 2.5 1 2.5 2.3 0 1.2-1.1 2.2-2.5 2.2z"/>
				</g>
				<g id="&lt;Group&gt;">
					<path id="&lt;Path&gt;" class="s1" d="m26.3 94.9c-1.3 0-2.5-1-2.5-2.2 0-1.3 1.2-2.3 2.5-2.3 1.4 0 2.6 1 2.6 2.3 0 1.2-1.2 2.2-2.6 2.2z"/>
				</g>
				<g id="&lt;Group&gt;">
					<path id="&lt;Path&gt;" class="s1" d="m104.3 102.7c-1.4 0-2.5-1-2.5-2.3 0-1.2 1.1-2.2 2.5-2.2 1.4 0 2.5 1 2.5 2.2 0 1.3-1.1 2.3-2.5 2.3z"/>
				</g>
				<g id="&lt;Group&gt;">
					<path id="&lt;Path&gt;" class="s1" d="m69.9 113.4c-1.4 0-2.6-1-2.6-2.3 0-1.2 1.2-2.2 2.6-2.2 1.3 0 2.5 1 2.5 2.2 0 1.3-1.2 2.3-2.5 2.3z"/>
				</g>
				<g id="&lt;Group&gt;">
					<path id="&lt;Path&gt;" class="s1" d="m35.4 102.8c-1.4 0-2.5-1-2.5-2.2 0-1.3 1.1-2.3 2.5-2.3 1.4 0 2.5 1 2.5 2.3 0 1.2-1.1 2.2-2.5 2.2z"/>
				</g>
				<g id="&lt;Group&gt;">
					<path id="&lt;Path&gt;" class="s1" d="m120.1 85.6c-1.4 0-2.5-1-2.5-2.2 0-1.3 1.1-2.3 2.5-2.3 1.4 0 2.6 1 2.6 2.3 0 1.2-1.2 2.2-2.6 2.2z"/>
				</g>
				<g id="&lt;Group&gt;">
					<path id="&lt;Path&gt;" class="s1" d="m69.8 60.8c-1.4 0-2.5-1-2.5-2.2 0-1.3 1.1-2.3 2.5-2.3 1.4 0 2.5 1 2.5 2.3 0 1.2-1.1 2.2-2.5 2.2z"/>
				</g>
			</g>
			<g id="&lt;Group&gt;">
				<path id="&lt;Compound Path&gt;" fill-rule="evenodd" class="s1" d="m12.8 68.1c-3.8 0-6.9-2.9-6.9-6.4 0-3.6 3.1-6.4 6.9-6.4 3.9 0 7 2.8 7 6.4 0 3.5-3.1 6.4-7 6.4zm5.8-6.4c0-2.9-2.6-5.3-5.8-5.3-3.1 0-5.7 2.4-5.7 5.3 0 2.9 2.6 5.2 5.7 5.2 3.2 0 5.8-2.3 5.8-5.2z"/>
			</g>
			<g id="&lt;Group&gt;">
				<path id="&lt;Compound Path&gt;" fill-rule="evenodd" class="s1" d="m14.9 79.3c-3.9 0-7-2.9-7-6.4 0-3.6 3.1-6.4 7-6.4 3.8 0 6.9 2.8 6.9 6.4 0 3.5-3.1 6.4-6.9 6.4zm5.7-6.4c0-3-2.6-5.3-5.7-5.3-3.2 0-5.8 2.3-5.8 5.3 0 2.9 2.6 5.2 5.8 5.2 3.1 0 5.7-2.3 5.7-5.2z"/>
			</g>
			<g id="&lt;Group&gt;">
				<path id="&lt;Compound Path&gt;" fill-rule="evenodd" class="s1" d="m19.5 89.7c-3.8 0-6.9-2.8-6.9-6.4 0-3.5 3.1-6.4 6.9-6.4 3.9 0 7 2.9 7 6.4 0 3.6-3.1 6.4-7 6.4zm5.8-6.4c0-2.9-2.6-5.2-5.8-5.2-3.2 0-5.7 2.3-5.7 5.2 0 3 2.5 5.3 5.7 5.3 3.2 0 5.8-2.3 5.8-5.3z"/>
			</g>
			<g id="&lt;Group&gt;">
				<path id="&lt;Compound Path&gt;" fill-rule="evenodd" class="s1" d="m26.5 99.1c-3.9 0-7-2.9-7-6.4 0-3.6 3.1-6.4 7-6.4 3.8 0 7 2.8 7 6.4 0 3.5-3.2 6.4-7 6.4zm5.7-6.4c0-3-2.6-5.3-5.7-5.3-3.2 0-5.7 2.3-5.7 5.3 0 2.9 2.5 5.2 5.7 5.2 3.1 0 5.7-2.3 5.7-5.2z"/>
			</g>
			<g id="&lt;Group&gt;">
				<path id="&lt;Compound Path&gt;" fill-rule="evenodd" class="s1" d="m35.5 106.8c-3.8 0-7-2.9-7-6.4 0-3.5 3.2-6.4 7-6.4 3.8 0 6.9 2.9 6.9 6.4 0 3.5-3.1 6.4-6.9 6.4zm5.7-6.4c0-2.9-2.5-5.3-5.7-5.3-3.2 0-5.7 2.4-5.7 5.3 0 2.9 2.5 5.3 5.7 5.3 3.2 0 5.7-2.4 5.7-5.3z"/>
			</g>
			<g id="&lt;Group&gt;">
				<path id="&lt;Compound Path&gt;" fill-rule="evenodd" class="s1" d="m45.9 112.6c-3.9 0-7-2.8-7-6.4 0-3.5 3.1-6.4 7-6.4 3.8 0 6.9 2.9 6.9 6.4 0 3.6-3.1 6.4-6.9 6.4zm5.7-6.4c0-2.9-2.6-5.2-5.7-5.2-3.2 0-5.8 2.3-5.8 5.2 0 2.9 2.6 5.3 5.8 5.3 3.1 0 5.7-2.4 5.7-5.3z"/>
			</g>
			<g id="&lt;Group&gt;">
				<path id="&lt;Compound Path&gt;" fill-rule="evenodd" class="s1" d="m57.6 116.2c-3.8 0-6.9-2.9-6.9-6.4 0-3.6 3.1-6.4 6.9-6.4 3.8 0 6.9 2.8 6.9 6.4 0 3.5-3.1 6.4-6.9 6.4zm5.7-6.4c0-3-2.5-5.3-5.7-5.3-3.2 0-5.7 2.3-5.7 5.3 0 2.9 2.5 5.2 5.7 5.2 3.2 0 5.7-2.3 5.7-5.2z"/>
			</g>
			<g id="&lt;Group&gt;">
				<path id="&lt;Compound Path&gt;" fill-rule="evenodd" class="s1" d="m69.8 117.5c-3.8 0-7-2.8-7-6.4 0-3.5 3.2-6.4 7-6.4 3.9 0 7 2.9 7 6.4 0 3.6-3.1 6.4-7 6.4zm5.7-6.4c0-2.9-2.5-5.2-5.7-5.2-3.2 0-5.7 2.3-5.7 5.2 0 2.9 2.5 5.3 5.7 5.3 3.2 0 5.7-2.4 5.7-5.3z"/>
			</g>
			<g id="&lt;Group&gt;">
				<path id="&lt;Compound Path&gt;" fill-rule="evenodd" class="s1" d="m82.1 116.2c-3.9 0-7-2.8-7-6.4 0-3.5 3.1-6.3 7-6.3 3.8 0 7 2.8 7 6.3 0 3.6-3.2 6.4-7 6.4zm5.7-6.4c0-2.9-2.5-5.2-5.7-5.2-3.2 0-5.7 2.3-5.7 5.2 0 3 2.5 5.3 5.7 5.3 3.2 0 5.7-2.3 5.7-5.3z"/>
			</g>
			<g id="&lt;Group&gt;">
				<path id="&lt;Compound Path&gt;" fill-rule="evenodd" class="s1" d="m93.7 112.6c-3.9 0-7-2.8-7-6.4 0-3.5 3.1-6.4 7-6.4 3.8 0 6.9 2.9 6.9 6.4 0 3.6-3.1 6.4-6.9 6.4zm5.7-6.3c0-3-2.6-5.3-5.7-5.3-3.2 0-5.8 2.3-5.8 5.3 0 2.9 2.6 5.2 5.8 5.2 3.1 0 5.7-2.3 5.7-5.2z"/>
			</g>
			<g id="&lt;Group&gt;">
				<path id="&lt;Compound Path&gt;" fill-rule="evenodd" class="s1" d="m104.2 106.8c-3.8 0-6.9-2.8-6.9-6.4 0-3.5 3.1-6.3 6.9-6.3 3.9 0 7 2.8 7 6.3 0 3.6-3.1 6.4-7 6.4zm5.8-6.4c0-2.9-2.6-5.2-5.8-5.2-3.1 0-5.7 2.3-5.7 5.2 0 3 2.6 5.3 5.7 5.3 3.2 0 5.8-2.3 5.8-5.3z"/>
			</g>
			<g id="&lt;Group&gt;">
				<path id="&lt;Compound Path&gt;" fill-rule="evenodd" class="s1" d="m113.2 99c-3.9 0-7-2.8-7-6.4 0-3.5 3.1-6.4 7-6.4 3.8 0 6.9 2.9 6.9 6.4 0 3.6-3.1 6.4-6.9 6.4zm5.7-6.4c0-2.9-2.6-5.2-5.7-5.2-3.2 0-5.8 2.3-5.8 5.2 0 2.9 2.6 5.3 5.8 5.3 3.1 0 5.7-2.4 5.7-5.3z"/>
			</g>
			<g id="&lt;Group&gt;">
				<path id="&lt;Compound Path&gt;" fill-rule="evenodd" class="s1" d="m120.1 89.7c-3.9 0-7-2.8-7-6.4 0-3.5 3.1-6.4 7-6.4 3.8 0 7 2.9 7 6.4 0 3.6-3.2 6.4-7 6.4zm5.7-6.4c0-2.9-2.5-5.2-5.7-5.2-3.2 0-5.7 2.3-5.7 5.2 0 2.9 2.5 5.3 5.7 5.3 3.2 0 5.7-2.4 5.7-5.3z"/>
			</g>
			<g id="&lt;Group&gt;">
				<path id="&lt;Compound Path&gt;" fill-rule="evenodd" class="s1" d="m124.9 79.1c-3.9 0-7-2.8-7-6.4 0-3.5 3.1-6.4 7-6.4 3.8 0 6.9 2.9 6.9 6.4 0 3.6-3.1 6.4-6.9 6.4zm5.7-6.4c0-2.9-2.6-5.2-5.7-5.2-3.2 0-5.7 2.3-5.7 5.2 0 2.9 2.5 5.3 5.7 5.3 3.1 0 5.7-2.4 5.7-5.3z"/>
			</g>
			<g id="&lt;Group&gt;">
				<path id="&lt;Compound Path&gt;" fill-rule="evenodd" class="s1" d="m127 67.9c-3.9 0-7-2.8-7-6.3 0-3.6 3.1-6.4 7-6.4 3.8 0 6.9 2.8 6.9 6.4 0 3.5-3.1 6.3-6.9 6.3zm5.7-6.4c0-2.9-2.6-5.2-5.7-5.2-3.2 0-5.8 2.3-5.8 5.2 0 2.9 2.6 5.3 5.8 5.3 3.1 0 5.7-2.4 5.7-5.3z"/>
			</g>
			<g id="&lt;Group&gt;">
				<path id="&lt;Compound Path&gt;" fill-rule="evenodd" class="s1" d="m69.9 65c-3.8 0-6.9-2.9-6.9-6.4 0-3.5 3.1-6.4 6.9-6.4 3.9 0 7 2.9 7 6.4 0 3.5-3.1 6.4-7 6.4zm5.8-6.4c0-2.9-2.6-5.3-5.8-5.3-3.1 0-5.7 2.4-5.7 5.3 0 2.9 2.6 5.3 5.7 5.3 3.2 0 5.8-2.4 5.8-5.3z"/>
			</g>
			<g id="&lt;Group&gt;">
				<path id="&lt;Path&gt;" class="s1" d="m126.3 56c-0.4-8-2.9-15.8-7.1-22.7-7.7-12.7-19.2-19-25.4-21.7-10.1-4.3-19.5-5-25.6-4.8-6.3 0.1-18.6 1.5-30.7 9.2-4.3 2.7-15 10.7-20.9 24.8-2 4.8-3.2 9.9-3.7 15.1l-1.5-0.1c0.5-5.3 1.8-10.5 3.8-15.4 6-14.6 17-22.7 21.5-25.5 12.3-7.9 25-9.3 31.4-9.5 6.3-0.2 16 0.6 26.3 5 6.4 2.7 18.2 9.2 26.1 22.2 4.3 7.1 6.8 15.1 7.3 23.3z"/>
			</g>
			<g id="&lt;Group&gt;">
				<path id="&lt;Path&gt;" class="s1" d="m19.2 58.8h-1.2c0.1-4.8 1-9.4 2.5-13.9 2.2-6.6 5.5-11.4 7.8-14.3 5.6-7 12.2-11.3 16.8-13.6 11-5.6 21.5-6.1 26.7-5.8 3.5 0.1 10.4 0.8 18.2 3.9 6 2.4 14.5 7 21.3 15.5 1.6 1.9 5.5 7.4 8.1 15.2 1.3 4.1 2.1 8.3 2.3 12.6l-1.2 0.1c-0.2-4.2-1-8.4-2.3-12.4-2.5-7.6-6.3-12.9-7.9-14.9-6.6-8.3-14.9-12.8-20.8-15.1-7.6-3-14.4-3.7-17.8-3.8-5.1-0.2-15.2 0.3-26 5.7-4.5 2.3-10.9 6.4-16.4 13.3-2.3 2.8-5.4 7.5-7.6 13.9-1.5 4.4-2.4 9-2.5 13.6z"/>
			</g>
		</g>
	</g>
</svg>